<svg width="291" height="246" viewBox="0 0 291 246" fill="none" xmlns="http://www.w3.org/2000/svg">
<path d="M266.316 58.9875L195.553 43.7938C195.553 42.4531 196.031 41.5594 196.031 40.2188C196.031 17.875 176.906 0 153.478 0C129.572 0 110.447 17.875 110.447 40.2188C110.447 44.6875 111.881 50.4969 114.75 57.2L100.884 59.8813L38.25 43.3469C29.1656 41.1125 19.6031 42.4531 11.9531 47.8156C4.30312 53.1781 0 61.2219 0 70.1594V197.966C0 210.478 9.08438 221.65 21.9938 224.778L97.5375 244.888C97.5375 244.888 97.5375 244.888 98.0156 244.888C98.9719 244.888 99.9281 245.334 100.884 245.334C101.841 245.334 102.319 245.334 103.275 245.334L190.294 228.353L253.406 242.206C255.797 242.653 257.709 243.1 260.1 243.1C266.794 243.1 273.488 240.866 278.747 236.844C285.919 231.481 290.222 223.438 290.222 214.947V86.2469C289.744 73.2875 280.181 62.1156 266.316 58.9875ZM153 20.1094C164.953 20.1094 174.038 29.0469 174.038 40.2188C174.038 45.1344 167.344 59.8813 152.522 81.3313C137.7 59.8813 131.006 45.5813 131.006 40.2188C131.484 29.0469 141.047 20.1094 153 20.1094ZM123.834 75.5219C129.094 84.4594 135.309 93.3969 141.047 100.994C143.438 104.569 148.219 106.803 152.522 106.803C157.303 106.803 161.606 104.569 163.997 100.994C168.778 94.2906 174.038 87.1406 178.819 79.5438V209.138L111.403 222.544V78.2031L123.834 75.5219ZM21.9938 197.519V70.1594C21.9938 67.4781 23.4281 65.2438 25.3406 63.9031C27.2531 62.5625 30.1219 62.1156 32.5125 62.5625L89.8875 77.7563V221.65L27.7313 205.116C24.3844 204.222 21.9938 201.094 21.9938 197.519ZM268.228 214.053C268.228 217.181 266.316 219.416 264.881 220.309C263.925 221.203 261.056 222.544 257.709 221.65L200.334 209.138V65.2438L261.534 78.65C265.359 79.5438 268.228 82.6719 268.228 86.2469V214.053V214.053Z" fill="white"/>
</svg>
