<svg width="154" height="133" viewBox="0 0 154 133" fill="none" xmlns="http://www.w3.org/2000/svg">
<path d="M140.991 31.9688L103.528 23.7344C103.528 23.0078 103.781 22.5234 103.781 21.7969C103.781 9.6875 93.6562 0 81.2531 0C68.5969 0 58.4719 9.6875 58.4719 21.7969C58.4719 24.2188 59.2312 27.3672 60.75 31L53.4094 32.4531L20.25 23.4922C15.4406 22.2813 10.3781 23.0078 6.32812 25.9141C2.27812 28.8203 0 33.1797 0 38.0234V107.289C0 114.07 4.80938 120.125 11.6438 121.82L51.6375 132.719C51.6375 132.719 51.6375 132.719 51.8906 132.719C52.3969 132.719 52.9031 132.961 53.4094 132.961C53.9156 132.961 54.1687 132.961 54.675 132.961L100.744 123.758L134.156 131.266C135.422 131.508 136.434 131.75 137.7 131.75C141.244 131.75 144.787 130.539 147.572 128.359C151.369 125.453 153.647 121.094 153.647 116.492V46.7422C153.394 39.7188 148.331 33.6641 140.991 31.9688ZM81 10.8984C87.3281 10.8984 92.1375 15.7422 92.1375 21.7969C92.1375 24.4609 88.5937 32.4531 80.7469 44.0781C72.9 32.4531 69.3562 24.7031 69.3562 21.7969C69.6094 15.7422 74.6719 10.8984 81 10.8984ZM65.5594 40.9297C68.3437 45.7734 71.6344 50.6172 74.6719 54.7344C75.9375 56.6719 78.4687 57.8828 80.7469 57.8828C83.2781 57.8828 85.5562 56.6719 86.8219 54.7344C89.3531 51.1016 92.1375 47.2266 94.6687 43.1094V113.344L58.9781 120.609V42.3828L65.5594 40.9297ZM11.6438 107.047V38.0234C11.6438 36.5703 12.4031 35.3594 13.4156 34.6328C14.4281 33.9063 15.9469 33.6641 17.2125 33.9063L47.5875 42.1406V120.125L14.6813 111.164C12.9094 110.68 11.6438 108.984 11.6438 107.047ZM142.003 116.008C142.003 117.703 140.991 118.914 140.231 119.398C139.725 119.883 138.206 120.609 136.434 120.125L106.059 113.344V35.3594L138.459 42.625C140.484 43.1094 142.003 44.8047 142.003 46.7422V116.008V116.008Z" fill="#111928"/>
</svg>
