<svg width="127" height="135" viewBox="0 0 127 135" fill="none" xmlns="http://www.w3.org/2000/svg">
<path d="M122.5 55.75C122.5 96 63.25 130.5 63.25 130.5C63.25 130.5 4 96 4 55.75C4 42.025 10.2424 28.8622 21.3539 19.1572C32.4655 9.45222 47.5359 4 63.25 4C78.9641 4 94.0345 9.45222 105.146 19.1572C116.258 28.8622 122.5 42.025 122.5 55.75Z" stroke="#F40000" stroke-width="8" stroke-linecap="round" stroke-linejoin="round"/>
<path d="M63.25 73C74.1576 73 83 65.2769 83 55.75C83 46.2231 74.1576 38.5 63.25 38.5C52.3424 38.5 43.5 46.2231 43.5 55.75C43.5 65.2769 52.3424 73 63.25 73Z" stroke="#F40000" stroke-width="8" stroke-linecap="round" stroke-linejoin="round"/>
</svg>
