<svg width="338" height="250" viewBox="0 0 338 250" fill="none" xmlns="http://www.w3.org/2000/svg">
<path d="M327.326 134.823C324.547 156.526 313.26 177.209 294.788 194.452C276.315 211.695 251.421 224.784 223.016 232.189C194.612 239.593 163.873 241.006 134.397 236.263C104.92 231.519 77.9252 220.816 56.5703 205.404C35.2154 189.992 20.3839 170.51 13.8113 149.236C7.23878 127.963 9.19697 105.779 19.4568 85.2799C29.7166 64.7806 47.8537 46.814 71.7457 33.4825C95.6378 20.1509 124.297 12.0058 154.369 10.0001C136.763 27.1905 128.29 48.3706 130.493 69.6882C132.696 91.0057 145.427 111.045 166.372 126.16C187.316 141.276 215.083 150.464 244.621 152.054C274.159 153.644 303.506 147.529 327.326 134.823Z" stroke="white" stroke-width="20" stroke-linecap="round" stroke-linejoin="round"/>
</svg>
