<svg width="158" height="162" viewBox="0 0 158 162" fill="none" xmlns="http://www.w3.org/2000/svg">
<path d="M42.7606 109V157M88.7606 133V157M81.0946 133H144.728C146.229 132.978 147.69 132.497 148.931 131.616C150.172 130.736 151.138 129.495 151.709 128.047C152.281 126.599 152.432 125.008 152.145 123.471C151.858 121.934 151.145 120.518 150.095 119.4L127.095 93H129.395C130.895 92.978 132.357 92.4969 133.598 91.6165C134.839 90.736 135.805 89.4948 136.376 88.0468C136.948 86.5988 137.099 85.0076 136.812 83.4706C136.525 81.9335 135.812 80.5182 134.761 79.4L111.761 53H113.295C114.861 53.1474 116.432 52.7888 117.796 51.9729C119.16 51.157 120.251 49.9232 120.92 48.4387C121.59 46.9542 121.806 45.2909 121.539 43.674C121.272 42.0572 120.535 40.5651 119.428 39.4L88.7613 5L78.028 17M65.7613 61V62.6C70.7893 64.6176 74.9791 68.4128 77.6 73.3238C80.221 78.2348 81.1068 83.95 80.103 89.4727C79.0992 94.9955 76.2696 99.9753 72.1074 103.544C67.9453 107.113 62.7147 109.043 57.3279 109H27.4279C22.1055 108.862 16.9938 106.801 12.9648 103.169C8.93582 99.5377 6.23903 94.56 5.33443 89.0852C4.42983 83.6104 5.37346 77.9777 8.00436 73.1478C10.6353 68.3179 14.7905 64.59 19.7613 62.6V61C19.7613 54.6348 22.1845 48.5303 26.4978 44.0294C30.8112 39.5286 36.6613 37 42.7613 37C48.8613 37 54.7114 39.5286 59.0247 44.0294C63.3381 48.5303 65.7613 54.6348 65.7613 61Z" stroke="#0F172B" stroke-width="10" stroke-linecap="round" stroke-linejoin="round"/>
</svg>
